# xmcd
#
# Track frame offsets:
#	150
#	16435
#	27800
#	41739
#	53593
#	69790
#	95414
#	110382
#	124652
#	145259
#	161024
#	173951
#	207738
#	221871
#	249238
#
# Disc length: 3535 seconds
#
# Revision: 1
# Processed by: cddbd v1.5.2PL0 Copyright (c) Steve Scherf et al.
# Submitted via: audiograbber 1.83.01
#
DISCID=d20dcd0f
DTITLE=Nando e Netto - Cd Promocional
DYEAR=2007
DGENRE=Sertanejo
TTITLE0=Procuro Você
TTITLE1=Meu Jeito de Ser
TTITLE2=Nova York
TTITLE3=Coração Bandido
TTITLE4=Mentira
TTITLE5=Guarânias
TTITLE6=Segue Sua Vida
TTITLE7=Rock Bacana
TTITLE8=Pout Pourri Viola
TTITLE9=Beijo Apaixonado
TTITLE10=100% Você
TTITLE11=Pout Pourri Modão
TTITLE12=Sábado de Festa
TTITLE13=Tadim-Tadim - Whisky a Gogo - Ela Arrepia Meu Corpo
TTITLE14=Vem e Vai
EXTD=Nando e Netto - Votuporanga/SP
EXTT0=
EXTT1=
EXTT2=
EXTT3=
EXTT4=
EXTT5=
EXTT6=
EXTT7=
EXTT8=
EXTT9=
EXTT10=
EXTT11=
EXTT12=
EXTT13=
EXTT14=
PLAYORDER=
